<svg width="236" height="293" viewBox="0 0 236 293" fill="none" xmlns="http://www.w3.org/2000/svg">
<path d="M134.904 266.441C131.865 267.074 125.549 267.663 124.595 264.96C123.641 262.258 131.071 264.821 134.904 266.441Z" fill="black"/>
<path d="M39.3801 163.89C39.0098 160.808 38.9628 154.464 41.7375 153.745C44.5122 153.026 41.322 160.209 39.3801 163.89Z" fill="black"/>
<path d="M133.778 272.034C132.129 274.664 128.18 279.629 125.57 278.445C122.959 277.261 129.954 273.678 133.778 272.034Z" fill="black"/>
<path d="M275.029 8.81474C259.863 -0.685264 223.829 -9.48526 201.029 31.3147" stroke="black"/>
<path d="M154.165 96.5473C156.093 96.8839 177.338 103.321 179.848 104.777C181.146 106.936 178.969 113.226 177.348 113.84C168.687 111.2 151.49 105.586 150.931 104.625C150.245 103.446 150.949 95.986 154.165 96.5473Z" stroke="black"/>
<path d="M150.896 100.765C146.668 99.0569 136.992 95.493 136.259 94.5082C135.136 93.0001 152.247 32.8395 155.635 28.5424C158.346 25.1047 207.319 39.4451 219.267 47.1236L200.376 115.272L181.111 110.245" stroke="black"/>
<path d="M151.625 38.6783C151.542 37.595 150.851 35.3283 148.751 34.9283C146.651 34.5284 144.792 37.1784 144.125 38.5533C143.417 36.97 141.076 33.9032 137.376 34.3032C133.676 34.7032 133.5 41.9699 133.875 45.5532C132.375 43.7616 128.676 41.2782 125.876 45.6782C123.076 50.0782 122.542 51.9282 122.625 52.3032" stroke="black"/>
<path d="M183.948 32.3704L190.103 19.4826C191.561 18.2222 197.003 20.8583 197.013 22.3182C197.02 23.3379 192.8 36.3891 192.8 36.3891" stroke="black"/>
<path d="M196.142 20.9924L191.626 34.0113" stroke="black" stroke-width="0.5"/>
<path d="M158.15 33.9164C161.264 31.0652 205.79 46.0189 212.884 48.4463C213.476 48.6488 213.828 49.1323 213.702 49.7452C212.134 57.3849 195.642 104.648 193.352 105.344C190.907 106.088 143.625 89.0152 141.518 87.1214C139.41 85.2275 154.81 36.974 158.15 33.9164Z" fill="black"/>
<path d="M179.419 61.2807C178.861 62.7172 177.245 63.4299 175.809 62.8727C174.372 62.3154 173.659 60.6991 174.217 59.2626C174.774 57.8261 176.39 57.1134 177.827 57.6707" stroke="#FAECD8"/>
<path d="M145.835 64.8347C152.042 61.6762 164.948 56.0024 166.915 58.5752C169.374 61.7913 171.784 75.3062 173.622 75.4784C175.461 75.6506 190.183 66.9248 191.803 69.1397C193.507 71.4708 195.032 79.7002 196.361 84.3487" stroke="#FAECD8"/>
<path d="M139.399 97.449C139.082 97.9736 138.841 99.1709 140.081 100.193C143.283 102.834 189.178 118.058 190.817 118.189C192.128 118.294 194.376 116.253 195.297 115.159" stroke="black"/>
<path d="M143.349 102.015L129.864 132.963L140.525 135.793L152.921 106.078" stroke="black"/>
<path d="M188.311 119.233L183.648 146.799L174.427 144.058L178.173 116.072" stroke="black"/>
<path d="M220.624 47.613C220.9 48.2948 221.351 50.1376 220.955 52.0548C220.459 54.4513 203.121 114.591 202.997 115.19C202.897 115.669 201.645 116.021 201.03 116.137" stroke="black"/>
<path d="M201.484 116.96L203.836 142.334C199.573 141.799 195.626 142.155 195.345 141.097C195.064 140.039 193.661 126.587 193.51 119.267" stroke="black"/>
<path d="M138.111 134.877L150.18 106.24" stroke="black" stroke-width="0.5"/>
<path d="M181.754 145.887L186.069 119.498" stroke="black" stroke-width="0.5"/>
<path d="M201.826 142.086L199.305 116.926" stroke="black" stroke-width="0.5"/>
<path d="M199.053 112.604L199.878 108.87" stroke="black" stroke-width="0.5"/>
<path d="M197.664 112.525L196.538 110.418" stroke="black" stroke-width="0.5"/>
<path d="M157.389 29.6343C158.662 29.6894 161.307 29.8203 161.707 29.9029" stroke="black" stroke-width="0.5"/>
<path d="M156.703 31.4297C157.361 31.6874 158.736 32.2251 158.967 32.3147" stroke="black" stroke-width="0.5"/>
<ellipse cx="52.2212" cy="97.4296" rx="3.74486" ry="5.61729" transform="rotate(-75.4886 52.2212 97.4296)" stroke="black"/>
<ellipse cx="118.711" cy="205.057" rx="3.74486" ry="5.61729" transform="rotate(-117.417 118.711 205.057)" stroke="black"/>
<ellipse cx="220.656" cy="96.1697" rx="3.74486" ry="5.61729" transform="rotate(164.814 220.656 96.1697)" stroke="black"/>
<path d="M155.167 277.414C160.14 274.141 161.911 266.73 159.098 263.053C152.178 254.614 143.507 258.879 142.33 265.678C141.329 271.464 133.829 275.015 134.817 277.29C135.805 279.565 147.218 282.644 155.167 277.414Z" stroke="black"/>
<path d="M153.621 275.082C156.465 276.426 153.309 278.424 151.376 279.255C140.532 281.737 135.43 278.708 134.9 276.839C134.37 274.969 138.772 271.858 140.329 270.129C141.886 268.399 142.844 263.878 142.661 265.635C142.478 267.391 144.677 267.8 146.904 265.854C149.131 263.907 149.529 267.733 148.336 270.863C147.144 273.992 150.066 273.403 153.621 275.082Z" fill="black"/>
<path d="M164.644 261.15C163.44 261.907 161.104 263.794 160.086 264.643C159.774 263.05 157.865 261.306 156.949 260.633C157.726 259.79 159.597 257.876 160.864 256.966C162.447 255.827 166.149 260.203 164.644 261.15Z" fill="black"/>
<path d="M180.883 248.55C177.696 250.746 166.213 258.919 160.87 262.73C159.026 263.851 158.367 260.008 159.567 258.713C160.768 257.418 183.452 239.552 190.184 235.877C196.916 232.202 195.73 238.149 194.365 238.974C192.999 239.8 184.867 245.804 180.883 248.55Z" stroke="black"/>
<path d="M193.738 236.607C192.163 237.288 188.619 238.897 187.032 239.891C185.446 240.885 180.271 244.655 177.882 246.416" stroke="black" stroke-width="0.5"/>
<path d="M175.53 248.23L170.146 252.323" stroke="black" stroke-width="0.5"/>
<path d="M155.653 261.397C155.24 261.206 154.016 260.803 152.424 260.722" stroke="black" stroke-width="0.5"/>
<path d="M155.496 262.271L153.587 262.897" stroke="black" stroke-width="0.5"/>
<path d="M165.763 276.03C166.583 277.598 168.401 278.267 169.824 277.523C171.247 276.779 171.736 274.904 170.916 273.336C170.096 271.768 168.278 271.099 166.855 271.843" stroke="black"/>
<path d="M78.9444 211.043C83.4444 217.543 76.4444 225.043 72.4444 230.543C86.9444 235.043 141.444 163.543 84.9444 159.543C28.4444 155.543 15.9444 194.543 19.4444 214.543C22.9444 234.543 41.9444 239.543 51.9444 232.043C61.9444 224.543 74.4444 204.543 78.9444 211.043Z" stroke="black"/>
<path d="M32.7207 233.44C36.804 236.773 50.1707 238.865 57.9707 231.065C67.7207 221.315 75.4082 209.94 80.1582 213.94M72.2207 230.315C72.7207 231.399 74.6707 233.515 78.4707 233.315C83.2207 233.065 99.7207 219.815 106.971 203.315C112.771 190.115 112.387 180.315 111.471 177.065" stroke="black"/>
<path d="M40.9707 232.065C40.054 232.19 35.9582 231.903 34.1582 231.003" stroke="black" stroke-width="0.5"/>
<path d="M41.1582 230.315C39.9915 230.128 37.4707 229.503 36.7207 228.503" stroke="black" stroke-width="0.5"/>
<path d="M46.1368 207.58C47.5888 201.818 56.0398 199.099 60.1761 199.772C66.8573 202.356 65.0858 211.194 56.952 216.141C48.8182 221.087 44.6849 213.342 46.1368 207.58Z" stroke="black"/>
<path d="M45.8457 210.94C46.554 209.815 48.6529 206.306 52.1582 204.315C57.2207 201.44 60.9707 201.565 64.0957 204.69" stroke="black" stroke-width="0.5"/>
<path d="M24.7198 205.565C26.9698 202.565 32.2198 204.565 33.2198 206.315C36.5948 210.19 31.9697 210.315 33.3447 212.44C34.7197 214.565 36.3447 218.315 32.9697 217.69C29.5947 217.065 33.4698 221.44 28.7198 220.065C23.9698 218.69 22.4698 208.565 24.7198 205.565Z" fill="black"/>
<path d="M36.3755 178.102C39.8859 176.784 43.2361 181.293 43.1379 183.307C43.8989 188.389 39.9326 186.006 39.9488 188.537C39.965 191.068 39.3179 195.104 36.8089 192.762C34.2998 190.419 35.2134 196.192 31.9486 192.478C28.6838 188.764 32.8651 179.421 36.3755 178.102Z" fill="black"/>
<path d="M49.8609 169.136C47.4108 171.975 50.486 176.676 52.4093 177.279C56.9158 179.749 56.0499 175.204 58.4195 176.093C60.7892 176.982 64.7998 177.769 63.4683 174.605C62.1368 171.442 67.2385 174.293 64.8807 169.946C62.5228 165.599 52.3111 166.297 49.8609 169.136Z" fill="black"/>
<path d="M77.6854 165.971C74.7346 168.285 76.8474 173.491 78.6185 174.453C82.5655 177.743 82.5906 173.117 84.7448 174.446C86.8989 175.774 90.6831 177.318 89.9855 173.957C89.2878 170.597 93.7454 174.377 92.2682 169.657C90.7911 164.938 80.6362 163.657 77.6854 165.971Z" fill="black"/>
<path d="M99.2982 191.846C98.4344 188.196 92.8226 187.932 91.2066 189.137C86.5643 191.34 90.7541 193.303 88.6445 194.701C86.5349 196.1 83.5468 198.888 86.8904 199.664C90.234 200.439 84.9335 202.902 89.8372 203.539C94.7409 204.177 100.162 195.495 99.2982 191.846Z" fill="black"/>
<path d="M104.721 170.128C105.283 170.961 106.508 173.34 106.908 176.19" stroke="black" stroke-width="0.5"/>
<path d="M101.971 171.315C102.45 172.107 103.483 173.99 103.783 175.19" stroke="black" stroke-width="0.5"/>
<path d="M99.5 156.928L109.5 149.428" stroke="black"/>
<path d="M134.001 101.428C135.001 107.095 132.901 118.028 116.501 116.428C96.0007 114.428 66.0007 108.428 61.5007 85.4283C57.0007 62.4283 70.5007 65.4283 75.0007 81.9283C79.5007 98.4283 73.0008 110.428 36.0008 112.428C-0.999229 114.428 -13.4995 161.428 23.2507 176.928M108.501 213.428C111.334 218.762 120.901 228.728 136.501 225.928C156.001 222.428 165.5 227.428 171.5 238.428" stroke="black"/>
<rect x="57" y="243.344" width="6" height="6" rx="1" transform="rotate(-6.50572 57 243.344)" stroke="black"/>
<rect x="154.975" y="143.467" width="6" height="6" rx="1" transform="rotate(-6.50572 154.975 143.467)" stroke="black"/>
<rect x="208.822" y="29.7151" width="6" height="6" rx="1" transform="rotate(-6.50572 208.822 29.7151)" stroke="black"/>
<path d="M179.25 254.178C180.333 258.845 184.6 268.278 193 268.678" stroke="black"/>
</svg>
