<svg width="223" height="273" viewBox="0 0 223 273" fill="none" xmlns="http://www.w3.org/2000/svg">
<rect x="131.794" y="214.041" width="6" height="6" rx="1" transform="rotate(-6.50572 131.794 214.041)" stroke="black"/>
<rect x="127.398" y="46.0769" width="6" height="6" rx="1" transform="rotate(-6.50572 127.398 46.0769)" stroke="black"/>
<path d="M71.8723 215.889C69.7603 214.593 65.7377 211.455 66.5436 209.267C67.3495 207.078 70.4319 212.769 71.8723 215.889Z" fill="black"/>
<path d="M77.1411 214.388C75.4301 211.798 72.5478 206.147 74.707 204.261C76.8661 202.376 77.2294 210.227 77.1411 214.388Z" fill="black"/>
<path d="M152.294 95.625C152.961 98.125 157.194 103.225 168.794 103.625C183.294 104.125 225.294 86.125 221.794 123.625C221.794 147.875 183.794 138.375 176.294 161.875" stroke="black"/>
<path d="M-7.45605 16.625C5.21061 13.625 37.5439 10.1251 54.2939 38.1251" stroke="black"/>
<path d="M113.188 90.9526L118.283 91.2842" stroke="black"/>
<path d="M98.9648 100.218L104.061 100.549" stroke="black"/>
<path d="M105.977 92.6196L111.072 92.9511" stroke="black"/>
<path d="M112.914 85.0991L117.635 85.3871" stroke="black"/>
<path d="M119.41 78.186L122.872 78.1893" stroke="black"/>
<path d="M124.706 72.3477L128.168 72.3509" stroke="black"/>
<path d="M130.281 66.4856L132.554 66.4443" stroke="black"/>
<path d="M126.258 67.4504L129.084 67.3954" stroke="black"/>
<path d="M119.418 73.9819L122.631 74.0451" stroke="black"/>
<path d="M113.143 80.4702L116.825 80.7236" stroke="black"/>
<path d="M105.854 88.155L108.384 88.0603" stroke="black"/>
<path d="M99.6533 94.4902L102.705 94.2632" stroke="black"/>
<path d="M118.575 84.7844L123.671 85.1159" stroke="black"/>
<path d="M124.852 77.553L129.947 77.8845" stroke="black"/>
<path d="M30.1772 72.0732C29.6502 76.9694 59.8941 109.789 68.3775 114.94C74.7017 115.008 126.902 61.7287 126.613 59.1956C126.324 56.6625 96.505 21.0804 91.9319 19.9243C87.3587 18.7683 30.7043 67.1771 30.1772 72.0732Z" stroke="black"/>
<path d="M35.1136 53.0664C34.599 51.8873 34.2149 49.222 36.7948 47.9938C39.3746 46.7655 41.4512 48.8324 42.1669 50.0195C42.1001 49.0092 42.4302 46.6744 44.2857 45.4176C46.1411 44.1607 48.0366 46.2205 48.7523 47.4075C48.994 46.2079 50.0458 43.9822 52.3195 44.6765C54.5931 45.3708 55.1143 46.9532 55.0907 47.6576" stroke="black"/>
<path d="M126.4 58.7388C141.089 57.8689 170.773 56.5556 169.862 58.9492C168.723 61.9413 124.037 114.906 117.381 116.258C112.057 117.339 82.9377 116.191 69.4081 114.675" stroke="black"/>
<path d="M116.989 115.137L114.848 114.808" stroke="black" stroke-width="0.5"/>
<path d="M117.757 114.463L116.668 113.73" stroke="black" stroke-width="0.5"/>
<path d="M167.189 59.4146L164.263 59.5017" stroke="black" stroke-width="0.5"/>
<path d="M166.878 60.7948L165.354 60.9563" stroke="black" stroke-width="0.5"/>
<path d="M89.3994 104.77C90.8402 103.125 127.731 65.5327 128.649 64.7124C131.263 64.2661 148.353 63.1059 147.669 64.2449C146.984 65.3839 113.557 104.358 110.693 106.066C107.828 107.775 87.9586 106.415 89.3994 104.77Z" stroke="black"/>
<path d="M136.601 64.1259C124.636 77.6881 100.416 105.141 99.2637 106.457" stroke="black"/>
<path d="M132.272 64.1385C120.429 76.9675 96.4562 102.936 95.3152 104.181" stroke="black"/>
<path d="M110.88 97.0767L107.697 96.7227" stroke="black"/>
<path d="M132.195 69.415L134.563 69.8358" stroke="black"/>
<path d="M107.041 103.694C119.039 90.7783 143.132 64.7574 143.52 64.0026" stroke="black"/>
<path d="M110.817 99.9204L113.858 100.19" stroke="black"/>
<path d="M116.218 94.0488L120.772 95.1454" stroke="black"/>
<path d="M127.504 92.1937C128.089 90.8686 137.805 79.5567 140.061 77.8061C140.211 77.6897 140.382 77.6168 140.571 77.5945C142.602 77.3536 146.332 79.4162 145.756 80.3529C145.153 81.3347 135.583 92.6167 134.113 93.3519C132.642 94.0872 126.896 93.5708 127.504 92.1937Z" fill="black"/>
<path d="M41.0655 73.5085C43.458 66.7829 84.4964 32.8891 89.4379 28.5484C89.7276 28.294 90.0573 28.111 90.4334 28.1959C96.1677 29.4897 120.127 57.9265 119.947 60.5133C119.76 63.1994 71.1469 106.398 68.7668 107.163C66.4516 107.907 42.8381 78.7225 41.0753 74.1421C40.9921 73.9258 40.9879 73.7268 41.0655 73.5085Z" fill="black"/>
<path d="M95.332 41.9402C95.8392 49.9177 96.8663 66.1575 96.9173 67.2965" stroke="#FAECD8"/>
<path d="M85.8504 48.9271C86.251 53.4595 87.0636 62.6861 87.1097 63.3329" stroke="#FAECD8"/>
<path d="M69.6655 116.496C69.8043 117.064 70.864 118.264 73.9921 118.519C77.9022 118.838 118.045 120.772 120.829 119.22C123.612 117.669 171.329 65.9621 171.473 63.5522C171.589 61.6244 170.606 59.6294 170.1 58.8728" stroke="black"/>
<path d="M30.5222 71.3064C30.0235 72.342 28.7727 75.5451 29.7656 77.3267C31.0066 79.5538 60.0731 115.246 66.9031 116.071" stroke="black"/>
<path d="M32.2754 71.8589L34.1901 75.7733" stroke="black" stroke-width="0.5"/>
<path d="M33.4912 70.9429L34.7726 73.0913" stroke="black" stroke-width="0.5"/>
<path d="M34.8086 69.7317L35.9009 71.0875" stroke="black" stroke-width="0.5"/>
<path d="M135.556 73.1277L139.105 73.9565" stroke="black"/>
<path d="M140.637 67.4897L142.173 67.9806" stroke="black"/>
<ellipse cx="79.0071" cy="132.484" rx="3.74486" ry="5.61729" transform="rotate(-89.8932 79.0071 132.484)" stroke="black"/>
<ellipse cx="164.872" cy="89.0901" rx="3.74486" ry="5.61729" transform="rotate(-15.0557 164.872 89.0901)" stroke="black"/>
<path d="M132.963 167.098C131.193 172.441 127.535 183.459 127.069 184.794" stroke="black" stroke-width="0.5"/>
<path d="M126.379 187.016L125.642 190.119" stroke="black" stroke-width="0.5"/>
<path d="M136.035 155.345C141.528 155.914 205.338 176.082 208.782 179.306C213.321 187.33 199.119 219.446 193.635 221.427C188.151 223.408 120.319 202.959 119.031 199.14C117.742 195.32 130.542 154.776 136.035 155.345Z" stroke="black"/>
<path d="M122.669 183.5C121.71 182.833 119.519 181.85 118.419 183.25C117.319 184.65 116.544 186.333 116.294 187C114.086 186.125 109.519 185.6 108.919 190.5" stroke="black"/>
<path d="M195.433 168.787C194.648 168.633 192.892 171.346 192.113 172.722L204.263 177.017C204.299 175.751 204.278 173.046 203.903 172.361C203.434 171.505 196.414 168.98 195.433 168.787Z" fill="black"/>
<path d="M139.972 156.054C140.694 154.433 142.387 151.152 143.386 150.992C144.636 150.791 158.609 154.235 159.385 155.151C160.005 155.884 159.97 160.064 159.875 162.063" stroke="black"/>
<path d="M146.355 151.766C145.389 153.444 143.41 156.907 143.225 157.329" stroke="black"/>
<path d="M155.808 154.067L156.225 161.028" stroke="black"/>
<path d="M151.015 152.362L149.481 158.876" stroke="black"/>
<path d="M132.075 158.644C156.371 165.961 206.062 181.027 209.283 182.27" stroke="black"/>
<path d="M191.577 180.642C192.213 180.321 204.103 183.674 204.926 184.345C206.071 185.653 203.99 189.766 203.155 189.475C202.321 189.184 191.254 186.183 190.344 185.304C189.433 184.425 190.941 180.963 191.577 180.642Z" stroke="black"/>
<path d="M146.848 183.327C151.105 173.104 161.263 174.947 166.151 176.093C176.013 179.256 178.364 186.65 177.397 191.234C175.565 199.919 169.744 207.056 157.044 203.417C147.155 200.584 142.591 193.549 146.848 183.327Z" stroke="black"/>
<path d="M150.573 186.799C153.873 176.166 163.442 179.015 165.639 179.871C168.163 180.609 175.05 184.144 172.278 192.394C169.506 200.643 165.913 201.03 162.61 200.866C159.306 200.703 147.273 197.432 150.573 186.799Z" fill="black"/>
<path d="M170.132 185.413C171.508 186.448 171.629 188.276 171.518 189.061C170.669 191.76 169.241 189.951 168.622 188.238C168.003 186.524 168.411 184.12 170.132 185.413Z" fill="#FAECD8"/>
<path d="M159.456 188.858C159.98 187.815 161.194 188.117 162.263 188.836C163.862 190.424 162.852 192.328 160.741 191.722C158.631 191.117 158.933 189.902 159.456 188.858Z" fill="#FAECD8"/>
<path d="M125.075 175.486C131.989 177.905 146.057 182.815 147.019 183.105" stroke="black"/>
<path d="M179.176 195.15L204.503 203.051" stroke="black"/>
<path d="M185.064 217.069C187.139 217.859 191.666 219.13 193.182 217.898C194.697 216.667 198.674 210.144 200.473 207.037" stroke="black" stroke-width="0.5"/>
<path d="M183.69 216.608L180.646 215.565" stroke="black" stroke-width="0.5"/>
<path d="M199.861 190.357L204.413 191.505" stroke="black" stroke-width="0.5"/>
<path d="M203.044 168.375L212.794 163.875" stroke="black"/>
<path d="M195.119 159.438C196.719 160.196 198.572 159.634 199.26 158.183C199.948 156.732 199.209 154.941 197.609 154.183C196.01 153.425 194.156 153.987 193.469 155.438" stroke="black"/>
<path d="M78.9915 254.18C78.7505 251.791 78.1538 248.083 71.3045 246.713C63.0392 245.06 54.1146 229.233 68.4532 220.101C82.7919 210.969 88.9017 224.611 90.1945 234.115C91.0331 240.28 86.4821 241.757 88.1834 245.373C89.5444 248.265 90.601 249.877 91.7064 251.311" stroke="black"/>
<path d="M75.166 220.183C76.5009 219.798 79.7239 219.626 81.937 222.02" stroke="black" stroke-width="0.5"/>
<path d="M82.7363 223.179C83.0909 223.612 83.8655 224.738 84.1266 225.781" stroke="black" stroke-width="0.5"/>
<path d="M78.1604 256.286C79.729 254.897 89.6303 250.205 91.3431 249.647C94.8309 248.252 95.0987 252.252 93.6417 253.282C92.1848 254.313 82.5029 259.359 80.2382 259.925C77.9736 260.491 76.5918 257.675 78.1604 256.286Z" stroke="black"/>
<path d="M83.4583 253.326C81.0823 248.957 75.6139 239.908 72.7479 238.66C69.1655 237.1 70.3574 241.463 73.6709 241.184C76.9843 240.906 80.9433 237.916 80.7164 235.252C80.4894 232.588 77.7416 233.506 78.4881 235.936C79.0852 237.881 84.388 247.13 86.9648 251.511" stroke="black"/>
<path d="M81.6706 259.417C80.5306 259.915 78.5117 262.021 79.8636 263.518C81.431 265.254 86.3039 262.354 90.6882 260.268C95.0725 258.183 97.4104 256.653 96.7208 254.648C96.1692 253.044 94.3519 253.109 93.5121 253.342" stroke="black"/>
<path d="M82.0022 263.804L80.8682 262.637" stroke="black" stroke-width="0.5"/>
<path d="M83.5715 263.322L82.3438 262.572" stroke="black" stroke-width="0.5"/>
<path d="M91.9316 266.241C87.443 268.95 84.5231 265.216 83.681 263.676L95.0549 258.004C95.8052 259.646 97.2612 263.866 91.9316 266.241Z" fill="black"/>
<path d="M159.294 222.125C159.461 226.792 156.594 238.625 143.794 248.625C127.794 261.125 130.544 236.625 139.794 239.625C149.044 242.625 147.044 260.375 134.794 267.375C124.994 272.975 106.044 266.208 97.7939 262.125" stroke="black"/>
<path d="M57.2383 235.375C54.6549 234.542 48.9383 233.425 46.7383 235.625" stroke="black"/>
<path d="M119.544 39.375L119.294 26.875" stroke="black"/>
</svg>
